<svg width="29" height="30" viewBox="0 0 29 30" fill="none" xmlns="http://www.w3.org/2000/svg">
<path fill-rule="evenodd" clip-rule="evenodd" d="M9.11494 8.39039L9.25744 8.51489L21.9864 21.2424C22.1533 21.409 22.2785 21.6127 22.3518 21.8368C22.4252 22.0609 22.4447 22.2992 22.4088 22.5322C22.3728 22.7653 22.2825 22.9866 22.145 23.1782C22.0075 23.3698 21.8267 23.5262 21.6174 23.6349L21.4434 23.7099L5.86594 29.4504C2.93794 30.5304 0.0864376 27.7779 0.975938 24.8544L1.05094 24.6354L6.78994 9.05789C6.86581 8.85154 6.98611 8.66439 7.14234 8.50969C7.29856 8.35499 7.48688 8.23653 7.69396 8.16268C7.90104 8.08884 8.12183 8.06142 8.34069 8.08236C8.55954 8.10331 8.77112 8.17211 8.96044 8.28389L9.11494 8.39039ZM8.79394 12.2934L3.86644 25.6734C3.82063 25.7979 3.80865 25.9323 3.83173 26.0629C3.85481 26.1935 3.91212 26.3157 3.99781 26.4169C4.08351 26.5182 4.19453 26.5949 4.31954 26.6392C4.44455 26.6836 4.57909 26.694 4.70944 26.6694L4.82944 26.6349L18.2064 21.7059L8.79394 12.2934ZM22.6614 14.9064C24.0279 14.9784 25.9014 15.2664 27.5304 16.2444C27.8607 16.4402 28.1033 16.7551 28.2083 17.1244C28.3133 17.4937 28.2727 17.8892 28.0949 18.2294C27.9171 18.5697 27.6156 18.8288 27.2524 18.9534C26.8893 19.0781 26.4922 19.0587 26.1429 18.8994L25.9869 18.8169C24.9639 18.2019 23.6559 17.9619 22.5039 17.9019C22.0292 17.8757 21.5534 17.8777 21.0789 17.9079L20.6049 17.9544C20.2136 18.0049 19.8182 17.8992 19.5043 17.6602C19.1904 17.4212 18.9833 17.0681 18.9278 16.6775C18.8724 16.2869 18.9731 15.8901 19.2081 15.5732C19.4431 15.2563 19.7935 15.0448 20.1834 14.9844C21.005 14.8784 21.8348 14.8518 22.6614 14.9049M25.6989 10.7259C26.0811 10.7267 26.4486 10.8733 26.7263 11.1359C27.004 11.3985 27.171 11.7572 27.1933 12.1387C27.2155 12.5203 27.0912 12.8959 26.8458 13.1889C26.6004 13.4819 26.2525 13.6703 25.8729 13.7154L25.6989 13.7259H24.6369C24.2547 13.7251 23.8873 13.5784 23.6096 13.3159C23.3318 13.0533 23.1648 12.6946 23.1426 12.313C23.1204 11.9315 23.2447 11.5559 23.4901 11.2628C23.7354 10.9698 24.0834 10.7815 24.4629 10.7364L24.6369 10.7259H25.6989ZM20.9259 9.57539C21.1842 9.83368 21.3393 10.1773 21.3623 10.5419C21.3852 10.9064 21.2743 11.2668 21.0504 11.5554L20.9259 11.6964L19.3359 13.2879C19.0666 13.5598 18.7036 13.7184 18.3211 13.7314C17.9386 13.7444 17.5657 13.6107 17.2786 13.3577C16.9914 13.1047 16.8119 12.7515 16.7766 12.3705C16.7414 11.9894 16.8531 11.6093 17.0889 11.3079L17.2134 11.1669L18.8034 9.57689C18.9427 9.43742 19.1082 9.32679 19.2903 9.2513C19.4724 9.17581 19.6676 9.13696 19.8647 9.13696C20.0618 9.13696 20.257 9.17581 20.4391 9.2513C20.6212 9.32679 20.7866 9.43592 20.9259 9.57539ZM17.0454 1.67789C17.7174 3.69689 17.3574 5.90789 16.9374 7.45289C16.6861 8.41643 16.3393 9.35255 15.9024 10.2474C15.7248 10.6034 15.413 10.8743 15.0356 11.0005C14.6583 11.1267 14.2462 11.0978 13.8902 10.9201C13.5341 10.7425 13.2632 10.4307 13.1371 10.0533C13.0109 9.67597 13.0398 9.26394 13.2174 8.90789C13.5665 8.18922 13.8428 7.43749 14.0424 6.66389C14.3829 5.41589 14.5539 4.06139 14.2914 2.95139L14.1999 2.62739C14.1346 2.4398 14.1071 2.24109 14.1192 2.0428C14.1312 1.84451 14.1825 1.65059 14.2701 1.4723C14.3577 1.294 14.4799 1.13488 14.6295 1.00418C14.7791 0.873479 14.9532 0.773794 15.1416 0.710914C15.33 0.648034 15.5291 0.623212 15.7272 0.637888C15.9253 0.652564 16.1185 0.706446 16.2957 0.796406C16.4728 0.886367 16.6303 1.01061 16.759 1.16193C16.8877 1.31325 16.9851 1.48863 17.0454 1.67789ZM25.1679 5.33489C25.4491 5.61618 25.6071 5.99764 25.6071 6.39539C25.6071 6.79313 25.4491 7.1746 25.1679 7.45589L24.1074 8.51639C23.9691 8.65965 23.8035 8.77393 23.6205 8.85254C23.4375 8.93115 23.2407 8.97253 23.0415 8.97426C22.8424 8.976 22.6448 8.93804 22.4605 8.86262C22.2762 8.7872 22.1087 8.67582 21.9678 8.53498C21.827 8.39414 21.7156 8.22666 21.6402 8.04232C21.5648 7.85798 21.5268 7.66046 21.5286 7.46129C21.5303 7.26212 21.5717 7.06529 21.6503 6.88228C21.7289 6.69928 21.8432 6.53376 21.9864 6.39539L23.0469 5.33489C23.3282 5.05368 23.7097 4.89571 24.1074 4.89571C24.5052 4.89571 24.8866 5.05368 25.1679 5.33489Z" fill="#7166D2"/>
</svg>
