<svg width="45" height="45" viewBox="0 0 45 45" fill="none" xmlns="http://www.w3.org/2000/svg">
<path d="M22.5 0.5C10.0737 0.5 0 10.5737 0 23C0 35.427 10.0737 45.5 22.5 45.5C34.927 45.5 45 35.427 45 23C45 10.5737 34.927 0.5 22.5 0.5ZM22.5 42.7318C11.6445 42.7318 2.8125 33.8555 2.8125 22.9999C2.8125 12.1444 11.6445 3.31241 22.5 3.31241C33.3555 3.31241 42.1875 12.1444 42.1875 22.9999C42.1875 33.8554 33.3555 42.7318 22.5 42.7318ZM31.4796 14.7671L18.2784 28.0512L12.3335 22.1063C11.7843 21.5572 10.8942 21.5572 10.3443 22.1063C9.79519 22.6555 9.79519 23.5456 10.3443 24.0948L17.3046 31.0557C17.8537 31.6041 18.7439 31.6041 19.2937 31.0557C19.357 30.9924 19.4112 30.9235 19.4604 30.8518L33.4695 16.7562C34.0179 16.2071 34.0179 15.3169 33.4695 14.7671C32.9196 14.218 32.0295 14.218 31.4796 14.7671Z" fill="#43A047"/>
</svg>
