<svg width="156" height="62" viewBox="0 0 156 62" fill="none" xmlns="http://www.w3.org/2000/svg">
<path d="M55.9498 19.9826C55.9261 17.0169 54.6916 14.5052 52.1799 12.8733C49.5831 11.1894 46.8491 9.72307 44.0205 8.07227V9.16491C44.0205 21.4064 44.0158 33.6431 44.0347 45.8846C44.0347 46.5326 43.8691 46.6982 43.2258 46.6887C40.6148 46.6509 37.9991 46.6509 35.3834 46.6887C34.7259 46.6982 34.5698 46.4995 34.5793 45.8657C34.6124 42.862 34.6029 39.8632 34.5887 36.8596C34.5792 35.4216 33.7515 34.4662 32.4129 34.4472C29.6174 34.4094 26.8219 34.4047 24.0312 34.4472C22.6878 34.4662 21.8222 35.4122 21.8222 36.7508C21.8127 43.529 21.808 50.3119 21.8317 57.0902C21.8364 58.599 22.5412 59.7721 23.894 60.4911C26.9307 62.1088 29.939 62 32.9048 60.2924C39.087 56.7354 45.2834 53.1878 51.4467 49.5977C54.2611 47.9564 55.9025 45.4541 55.945 42.1809C56.0349 34.7831 56.016 27.3805 55.9545 19.9779L55.9498 19.9826Z" fill="#7166D2"/>
<path d="M24.3917 27.107C26.8986 27.1117 29.4103 27.107 31.9172 27.107C33.7903 27.107 34.5945 26.2982 34.5945 24.4061C34.5945 20.4991 34.5945 16.592 34.5945 12.6897C34.5945 10.1828 34.585 7.67107 34.5945 5.16413C34.6039 3.58428 34.0032 2.34026 32.6315 1.53615C30.7252 0.415117 28.6677 0.131315 26.4966 0.504992C24.8741 0.784067 23.5261 1.66859 22.1449 2.46797C16.4357 5.76011 10.7217 9.03808 5.02669 12.3539C2.03255 14.0945 0.50473 16.7197 0.5 20.2058C0.5 27.4476 0.5 34.6893 0.5 41.9358C0.5 45.3084 2.02309 47.8342 4.8706 49.556C7.1032 50.9041 9.38783 52.1717 11.6488 53.4725C12.3772 53.8887 12.382 53.884 12.382 53.0184C12.382 46.8882 12.382 40.758 12.382 34.6278C12.382 28.4693 12.3914 22.3154 12.3678 16.1568C12.3678 15.5372 12.505 15.3054 13.1766 15.3149C15.7876 15.3527 18.4034 15.348 21.0144 15.3149C21.6198 15.3054 21.8043 15.4615 21.7948 16.0859C21.7617 18.905 21.7712 21.7242 21.7854 24.5433C21.7948 26.2603 22.651 27.1023 24.3775 27.107H24.3917Z" fill="#7166D2"/>
<path d="M73.6039 35.7001H62.3179C62.6726 38.4057 64.6829 39.7301 67.2135 39.7301C69.0914 39.7301 70.5861 39.0821 72.0287 37.9989L73.4998 39.9193C72.1659 41.3242 69.6637 42.327 67.0811 42.327C62.5922 42.327 59.248 39.4038 59.248 34.9433C59.248 30.8045 62.1334 27.5312 66.7027 27.5312C70.8651 27.5312 74.0721 30.2085 73.6133 35.7001H73.6039ZM66.6128 30.0477C64.3565 30.0477 62.8571 31.4005 62.3983 33.4533H70.5056C70.534 31.2349 68.6562 30.0477 66.6175 30.0477H66.6128Z" fill="#434242"/>
<path d="M79.885 42.0045H76.8672V22.1807H79.885V42.0045Z" fill="#434242"/>
<path d="M99.0088 34.811C99.0088 39.437 95.5795 42.3318 91.4454 42.3318C89.0804 42.3318 87.5289 41.3858 86.6302 39.8154V46.8207H83.584V27.8625H86.3038L86.6018 30.3222C87.5289 28.643 89.1324 27.5361 91.715 27.5361C95.9579 27.5361 99.0041 30.4593 99.0041 34.811H99.0088ZM95.8775 34.8347C95.8775 31.8074 93.73 30.1566 91.1427 30.1566C88.5553 30.1566 86.6254 32.025 86.6254 35.0239C86.6254 38.0227 88.4749 39.7019 91.0859 39.7019C93.9145 39.7019 95.8728 37.7531 95.8728 34.8347H95.8775Z" fill="#434242"/>
<path d="M119.216 23.0703V42.0048H116.061V33.9164H105.508V42.0048H102.354V23.0703H105.508V31.1304H116.061V23.0703H119.216Z" fill="#434242"/>
<path d="M136.596 27.8573V42.0002H134.037L133.601 39.7534C132.703 41.3475 131.18 42.3219 128.867 42.3219C125.276 42.3219 123.072 39.9426 123.072 36.939V27.8525H126.118V36.4282C126.118 38.2398 126.937 39.7818 129.519 39.7818C132.376 39.7818 133.573 38.079 133.573 34.5882V27.8525H136.591L136.596 27.8573Z" fill="#434242"/>
<path d="M155.502 34.8345C155.502 39.4321 152.182 42.3269 148.133 42.3269C145.768 42.3269 144.159 41.2721 143.237 39.5409L142.939 42.0005H140.328V22.1768H143.346V30.2368C144.273 28.5576 145.877 27.5312 148.322 27.5312C152.456 27.5312 155.502 30.4544 155.502 34.8345ZM152.399 34.8629C152.399 31.8072 150.361 30.1564 147.83 30.1564C145.299 30.1564 143.341 32.0248 143.341 35.0521C143.341 38.0793 145.247 39.7017 147.75 39.7017C150.526 39.7017 152.399 37.7529 152.399 34.8581V34.8629Z" fill="#434242"/>
</svg>
