<svg width="59" height="59" viewBox="0 0 59 59" fill="none" xmlns="http://www.w3.org/2000/svg">
<path fill-rule="evenodd" clip-rule="evenodd" d="M19.8541 17.8479L20.0877 18.052L40.9491 38.9109C41.2225 39.1841 41.4277 39.5178 41.5479 39.8851C41.6682 40.2524 41.7002 40.6429 41.6413 41.0249C41.5823 41.4068 41.4342 41.7695 41.2089 42.0835C40.9835 42.3975 40.6873 42.6539 40.3443 42.832L40.0592 42.9549L14.5294 52.3629C9.7307 54.1329 5.05741 49.6219 6.5152 44.8306L6.63811 44.4717L16.0437 18.9419C16.168 18.6037 16.3652 18.297 16.6212 18.0435C16.8773 17.7899 17.1859 17.5958 17.5253 17.4748C17.8647 17.3537 18.2265 17.3088 18.5852 17.3431C18.9439 17.3775 19.2906 17.4902 19.6009 17.6734L19.8541 17.8479ZM19.328 24.2445L11.2524 46.1729C11.1773 46.3769 11.1577 46.5972 11.1955 46.8112C11.2333 47.0253 11.3273 47.2255 11.4677 47.3915C11.6082 47.5574 11.7901 47.6831 11.995 47.7558C12.1999 47.8285 12.4204 47.8455 12.634 47.8052L12.8307 47.7487L34.7541 39.6706L19.328 24.2445ZM42.0553 28.5269C44.2949 28.6449 47.3653 29.1169 50.0351 30.7198C50.5763 31.0406 50.9739 31.5568 51.146 32.162C51.3181 32.7672 51.2516 33.4154 50.9602 33.973C50.6687 34.5307 50.1746 34.9553 49.5795 35.1596C48.9843 35.3639 48.3336 35.3322 47.7611 35.071L47.5054 34.9358C45.8289 33.9279 43.6852 33.5346 41.7972 33.4362C41.0192 33.3932 40.2394 33.3965 39.4618 33.4461L38.6849 33.5223C38.0437 33.605 37.3956 33.4318 36.8811 33.0401C36.3667 32.6484 36.0272 32.0698 35.9364 31.4296C35.8455 30.7894 36.0105 30.1392 36.3957 29.6198C36.7809 29.1004 37.3552 28.7537 37.9942 28.6548C39.3406 28.4811 40.7006 28.4374 42.0553 28.5245M47.0334 21.6756C47.6598 21.6769 48.2621 21.9172 48.7172 22.3476C49.1724 22.7779 49.4461 23.3657 49.4825 23.9911C49.5189 24.6164 49.3152 25.232 48.913 25.7122C48.5109 26.1924 47.9406 26.5011 47.3186 26.575L47.0334 26.5922H45.2929C44.6666 26.5909 44.0643 26.3506 43.6092 25.9202C43.154 25.4899 42.8803 24.9021 42.8439 24.2768C42.8075 23.6514 43.0112 23.0358 43.4133 22.5556C43.8155 22.0754 44.3858 21.7668 45.0078 21.6928L45.2929 21.6756H47.0334ZM39.211 19.79C39.6343 20.2133 39.8886 20.7765 39.9261 21.374C39.9637 21.9714 39.782 22.562 39.4151 23.035L39.211 23.2661L36.6052 25.8744C36.1638 26.32 35.5688 26.58 34.942 26.6013C34.3152 26.6226 33.704 26.4034 33.2334 25.9888C32.7628 25.5742 32.4686 24.9953 32.4108 24.3708C32.353 23.7463 32.5361 23.1233 32.9226 22.6294L33.1267 22.3983L35.7325 19.7925C35.9608 19.5639 36.2319 19.3826 36.5304 19.2589C36.8288 19.1352 37.1487 19.0715 37.4718 19.0715C37.7948 19.0715 38.1147 19.1352 38.4132 19.2589C38.7116 19.3826 38.9827 19.5615 39.211 19.79ZM32.8513 6.84691C33.9527 10.1558 33.3627 13.7794 32.6743 16.3115C32.2623 17.8906 31.6941 19.4248 30.9781 20.8914C30.687 21.4749 30.176 21.9189 29.5575 22.1257C28.939 22.3324 28.2637 22.285 27.6802 21.9939C27.0967 21.7028 26.6527 21.1918 26.4459 20.5733C26.2392 19.9549 26.2865 19.2796 26.5777 18.6961C27.1497 17.5182 27.6026 16.2862 27.9297 15.0184C28.4878 12.9731 28.768 10.7532 28.3378 8.93403L28.1879 8.40303C28.0807 8.09559 28.0357 7.76993 28.0555 7.44496C28.0752 7.11998 28.1593 6.80217 28.3029 6.50996C28.4465 6.21776 28.6467 5.95698 28.8919 5.74277C29.137 5.52857 29.4223 5.36519 29.7312 5.26214C30.04 5.15909 30.3662 5.11841 30.6909 5.14246C31.0156 5.16651 31.3323 5.25482 31.6225 5.40225C31.9128 5.54969 32.1709 5.75331 32.3818 6.00131C32.5928 6.24931 32.7524 6.53673 32.8513 6.84691ZM46.1632 12.8403C46.6241 13.3013 46.883 13.9265 46.883 14.5784C46.883 15.2302 46.6241 15.8554 46.1632 16.3164L44.4252 18.0544C44.1984 18.2892 43.9271 18.4765 43.6272 18.6054C43.3273 18.7342 43.0047 18.802 42.6783 18.8049C42.3518 18.8077 42.0281 18.7455 41.726 18.6219C41.4239 18.4983 41.1494 18.3157 40.9186 18.0849C40.6878 17.8541 40.5052 17.5796 40.3816 17.2775C40.258 16.9754 40.1958 16.6517 40.1987 16.3253C40.2015 15.9988 40.2693 15.6763 40.3982 15.3763C40.527 15.0764 40.7143 14.8051 40.9491 14.5784L42.6871 12.8403C43.1481 12.3795 43.7733 12.1206 44.4252 12.1206C45.077 12.1206 45.7022 12.3795 46.1632 12.8403Z" fill="#7166D2"/>
</svg>
